<?xml version="1.0" standalone="no"?>
<!DOCTYPE svg PUBLIC "-//W3C//DTD SVG 20010904//EN"
 "http://www.w3.org/TR/2001/REC-SVG-20010904/DTD/svg10.dtd">
<svg version="1.0" xmlns="http://www.w3.org/2000/svg"
 width="400.000000pt" height="400.000000pt" viewBox="0 0 400.000000 400.000000"
 preserveAspectRatio="xMidYMid meet">
<metadata>
Created by potrace 1.14, written by Peter Selinger 2001-2017
</metadata>
<g transform="translate(0.000000,400.000000) scale(0.100000,-0.100000)"
fill="#000000" stroke="none">
<path d="M1859 3826 c-2 -2 -24 -6 -49 -9 -80 -9 -224 -45 -290 -74 -8 -3 -17
-7 -20 -8 -3 0 -24 -11 -46 -23 -23 -11 -44 -19 -46 -16 -3 2 -11 -2 -18 -11
-7 -8 -16 -15 -21 -15 -14 0 -189 -121 -189 -131 0 -5 -5 -9 -12 -9 -6 0 -51
-40 -99 -90 -92 -94 -191 -233 -235 -328 -43 -93 -66 -146 -69 -162 -2 -8 -12
-48 -24 -88 -11 -41 -24 -99 -28 -130 -10 -73 -10 -1327 0 -1407 4 -33 14 -85
22 -115 9 -30 17 -62 20 -70 29 -120 124 -301 226 -430 199 -253 519 -435 839
-478 69 -9 281 -9 340 0 126 20 186 34 240 56 8 3 20 7 25 7 43 7 293 136 315
164 3 3 30 25 60 48 48 37 107 93 178 170 34 36 134 183 125 183 -4 0 -3 4 3
8 11 7 97 168 101 188 1 5 13 43 26 84 14 41 29 95 32 120 4 25 10 61 13 80 3
19 7 328 8 685 2 611 1 655 -17 735 -10 47 -21 96 -23 110 -11 61 -80 227
-117 281 -10 14 -16 29 -12 33 3 3 1 6 -5 6 -7 0 -12 7 -12 15 0 8 -5 15 -11
15 -5 0 -7 5 -4 10 3 6 2 10 -2 10 -5 0 -17 15 -28 33 -10 17 -21 34 -24 37
-3 3 -22 25 -42 50 -47 58 -119 130 -130 130 -5 0 -9 7 -9 15 0 8 -4 15 -8 15
-5 0 -35 20 -68 45 -93 71 -91 69 -194 123 -70 37 -200 89 -245 98 -11 2 -30
6 -43 8 -12 3 -26 7 -31 10 -22 14 -390 34 -402 22z m449 -650 c6 -3 23 -8 39
-10 116 -18 263 -75 357 -141 153 -105 278 -268 321 -417 16 -57 19 -70 29
-138 l5 -35 -695 0 c-382 1 -698 -3 -700 -7 -3 -5 3 -11 13 -15 10 -4 27 -15
37 -25 11 -10 25 -18 32 -18 7 0 14 -4 16 -8 6 -15 215 -111 353 -161 141 -52
175 -66 207 -82 10 -5 22 -9 28 -9 20 0 235 -112 305 -158 90 -60 196 -164
225 -222 53 -105 61 -278 19 -409 -52 -159 -166 -285 -334 -369 -44 -22 -93
-43 -110 -47 -16 -5 -37 -10 -45 -13 -8 -2 -25 -5 -37 -6 -13 0 -23 -3 -23 -6
0 -17 -364 -14 -455 4 -47 9 -111 20 -120 21 -26 3 -162 48 -174 59 -8 6 -17
10 -20 10 -3 -1 -16 2 -29 7 -13 5 -28 9 -33 9 -5 0 -9 4 -9 9 0 7 -15 14 -43
19 -7 2 -22 13 -52 40 -8 7 -15 11 -15 7 0 -5 -41 23 -93 65 -72 58 -217 228
-217 255 0 7 -7 18 -15 25 -13 11 -66 113 -64 123 0 1 -7 19 -16 40 -8 20 -12
37 -9 37 4 0 -1 9 -11 20 -11 12 -13 20 -6 20 9 0 9 5 1 21 -14 24 -20 58 -37
179 -6 48 -10 253 -4 264 2 5 6 28 7 50 4 60 15 118 26 139 5 9 6 22 3 27 -3
6 -2 10 3 10 5 0 9 6 10 13 1 27 12 58 38 113 15 33 28 62 28 66 1 3 5 10 9
15 5 4 15 23 22 41 8 17 19 32 25 32 6 0 8 5 5 10 -3 6 -1 10 4 10 6 0 11 6
11 14 0 8 7 16 15 20 8 3 15 11 15 19 0 13 127 149 185 197 51 43 158 114 210
140 28 14 52 27 55 30 7 7 131 54 195 73 65 20 148 38 205 43 24 3 46 7 48 9
6 6 249 -2 260 -9z"/>
<path d="M1955 3143 c-264 -54 -431 -215 -439 -426 -4 -104 20 -172 84 -237
l30 -30 395 2 c217 2 395 -1 395 -5 0 -5 5 -5 11 -2 5 4 78 6 160 6 l150 -2
-7 48 c-4 26 -13 65 -20 86 -7 20 -13 38 -13 40 0 1 -4 13 -9 27 -5 14 -11 30
-12 35 -2 6 -13 26 -25 45 -12 19 -25 45 -29 58 -4 12 -12 22 -17 22 -5 0 -13
8 -16 17 -13 34 -153 183 -172 183 -6 0 -11 3 -11 8 0 10 -72 58 -82 55 -4 -2
-8 1 -8 6 0 5 -37 24 -82 42 -96 37 -177 43 -283 22z"/>
<path d="M1397 2708 c-60 -124 -103 -274 -124 -429 -13 -100 -7 -314 12 -408
2 -12 7 -42 9 -65 5 -38 13 -70 46 -181 17 -56 95 -221 109 -229 6 -4 11 -14
11 -22 0 -8 7 -22 15 -31 9 -10 32 -38 51 -63 87 -110 174 -185 287 -249 37
-21 172 -80 185 -81 4 0 25 -6 47 -12 22 -6 49 -12 60 -14 11 -2 31 -6 45 -9
29 -6 183 -8 220 -1 14 2 41 7 60 10 44 8 197 85 204 103 3 7 10 13 16 13 36
0 132 144 144 215 15 85 5 173 -24 220 -19 30 -110 121 -110 110 0 -3 -12 5
-26 18 -30 28 -326 178 -347 176 -3 0 -44 15 -89 34 -20 8 -39 13 -42 9 -3 -3
-6 0 -6 7 0 7 -4 10 -9 6 -5 -3 -12 -1 -15 4 -3 5 -17 12 -31 15 -14 4 -49 17
-78 30 -28 13 -67 30 -84 37 -18 8 -33 17 -33 21 0 5 -7 8 -15 8 -38 0 -198
98 -275 167 -14 13 -28 23 -32 23 -5 0 -8 5 -8 11 0 14 -26 39 -40 39 -6 0 -9
4 -6 9 3 5 -1 14 -10 21 -16 14 -54 92 -72 150 -22 68 -32 225 -18 303 14 87
17 107 13 107 -3 0 -20 -33 -40 -72z m434 -1524 c51 -25 116 -51 149 -59 83
-22 169 -36 235 -40 44 -2 82 -5 85 -6 3 -1 9 -1 14 0 6 1 30 4 55 7 79 7 124
16 211 43 l35 11 -25 -21 c-51 -41 -145 -80 -235 -97 -48 -9 -210 -3 -210 8 0
2 -38 7 -77 12 -10 1 -18 6 -18 10 0 4 -3 7 -7 6 -8 -1 -45 13 -103 40 -43 20
-170 100 -170 107 0 8 2 7 61 -21z"/>
</g>
</svg>
